PathFileType	4	(X/Y/Z)	pose_F01_0-93.trc
DataRate	CameraRate	NumFrames	NumMarkers	Units	OrigDataRate	OrigDataStartFrame	OrigNumFrames
30	30	5	21	m	30	11	93
Frame#	Time	CHip			RHip			RKnee			RAnkle			RBigToe			RSmallToe			RHeel			LHip			LKnee			LAnkle			LBigToe			LSmallToe			LHeel			Neck			Nose			RShoulder			RElbow			RWrist			LShoulder			LElbow			LWrist			
		X1	Y1	Z1	X2	Y2	Z2	X3	Y3	Z3	X4	Y4	Z4	X5	Y5	Z5	X6	Y6	Z6	X7	Y7	Z7	X8	Y8	Z8	X9	Y9	Z9	X10	Y10	Z10	X11	Y11	Z11	X12	Y12	Z12	X13	Y13	Z13	X14	Y14	Z14	X15	Y15	Z15	X16	Y16	Z16	X17	Y17	Z17	X18	Y18	Z18	X19	Y19	Z19	X20	Y20	Z20	X21	Y21	Z21	
11	0.36666666666666664	-0.23711302227013387	1.871201082412841	-0.5798262491554244	-0.2541610458172733	1.8682765353502426	-0.5179740098521936	-0.23306041607187022	1.7114838818709968	-0.4962759685034897	-0.2326290840360767	1.5568344123633888	-0.48502456976195524	-0.612447530621155	1.4965097305654886	-0.8837148153502998				-0.22252203321092257	1.5410497600789193	-0.4901635743778862	-0.22345957534983088	1.8749175963900828	-0.648807121009032	-0.21082423640434786	1.7132433346995584	-0.6158397714550143	-0.20857842499862356	1.56286262994007	-0.5801597629316182	-0.2514813534654437	1.5157056182695912	-0.6215075474637063	-0.23468220809740323	1.5237800310030365	-0.6300676481840742	-0.20612348363274596	1.5481208431297162	-0.5726748960147472	-0.22114119569207402	2.0535568836605695	-0.5885121536271801	-0.261330335317756	2.1235024838081222	-0.6108234581359104	-0.24048567745470378	2.050460866438367	-0.5014568954793435	-0.24907872995757596	1.947000809074328	-0.46845225173975125	-0.2631004118108197	1.8619411425881158	-0.4503163200582461	-0.20141280918310983	2.05760787459494	-0.6738336906174608	-0.20043301696075932	1.9937946552218233	-0.7154326060038397	-1.2475806394594646	1.8286142833058876	0.3537678232434081
12	0.4	-0.23711302227013387	1.871201082412841	-0.5798262491554244	-0.2541610458172733	1.8682765353502426	-0.5179740098521936	-0.23306041607187022	1.7114838818709968	-0.4962759685034897	-0.2326290840360767	1.5568344123633888	-0.48502456976195524	-0.612447530621155	1.4965097305654886	-0.8837148153502998				-0.22252203321092257	1.5410497600789193	-0.4901635743778862	-0.22345957534983088	1.8749175963900828	-0.648807121009032	-0.21082423640434786	1.7132433346995584	-0.6158397714550143	-0.20857842499862356	1.56286262994007	-0.5801597629316182	-0.2514813534654437	1.5157056182695912	-0.6215075474637063	-0.23468220809740323	1.5237800310030365	-0.6300676481840742	-0.20612348363274596	1.5481208431297162	-0.5726748960147472	-0.22114119569207402	2.0535568836605695	-0.5885121536271801	-0.261330335317756	2.1235024838081222	-0.6108234581359104	-0.24048567745470378	2.050460866438367	-0.5014568954793435	-0.24907872995757596	1.947000809074328	-0.46845225173975125	-0.2631004118108197	1.8619411425881158	-0.4503163200582461	-0.20141280918310983	2.05760787459494	-0.6738336906174608	-0.20043301696075932	1.9937946552218233	-0.7154326060038397	-1.2503576852129623	1.828865671896099	0.3582299124466968
13	0.43333333333333335	-0.23711302227013387	1.871201082412841	-0.5798262491554244	-0.2541610458172733	1.8682765353502426	-0.5179740098521936	-0.23306041607187022	1.7114838818709968	-0.4962759685034897	-0.2326290840360767	1.5568344123633888	-0.48502456976195524	-0.612447530621155	1.4965097305654886	-0.8837148153502998				-0.22252203321092257	1.5410497600789193	-0.4901635743778862	-0.22345957534983088	1.8749175963900828	-0.648807121009032	-0.21082423640434786	1.7132433346995584	-0.6158397714550143	-0.20857842499862356	1.56286262994007	-0.5801597629316182	-0.2514813534654437	1.5157056182695912	-0.6215075474637063	-0.23468220809740323	1.5237800310030365	-0.6300676481840742	-0.20612348363274596	1.5481208431297162	-0.5726748960147472	-0.22114119569207402	2.0535568836605695	-0.5885121536271801	-0.261330335317756	2.1235024838081222	-0.6108234581359104	-0.24048567745470378	2.050460866438367	-0.5014568954793435	-0.24907872995757596	1.947000809074328	-0.46845225173975125	-0.2631004118108197	1.8619411425881158	-0.4503163200582461	-0.20141280918310983	2.05760787459494	-0.6738336906174608	-0.20043301696075932	1.9937946552218233	-0.7154326060038397	-1.2503576852129623	1.828865671896099	0.3582299124466968
14	0.4666666666666667	-0.23711302227013387	1.871201082412841	-0.5798262491554244	-0.2541610458172733	1.8682765353502426	-0.5179740098521936	-0.23306041607187022	1.7114838818709968	-0.4962759685034897	-0.2326290840360767	1.5568344123633888	-0.48502456976195524	-0.612447530621155	1.4965097305654886	-0.8837148153502998				-0.22252203321092257	1.5410497600789193	-0.4901635743778862	-0.22345957534983088	1.8749175963900828	-0.648807121009032	-0.21082423640434786	1.7132433346995584	-0.6158397714550143	-0.20857842499862356	1.56286262994007	-0.5801597629316182	-0.2514813534654437	1.5157056182695912	-0.6215075474637063	-0.23468220809740323	1.5237800310030365	-0.6300676481840742	-0.20612348363274596	1.5481208431297162	-0.5726748960147472	-0.22114119569207402	2.0535568836605695	-0.5885121536271801	-0.261330335317756	2.1235024838081222	-0.6108234581359104	-0.24048567745470378	2.050460866438367	-0.5014568954793435	-0.24907872995757596	1.947000809074328	-0.46845225173975125	-0.2631004118108197	1.8619411425881158	-0.4503163200582461	-0.20141280918310983	2.05760787459494	-0.6738336906174608	-0.20043301696075932	1.9937946552218233	-0.7154326060038397	-1.2503576852129623	1.828865671896099	0.3582299124466968
15	0.5	-0.23689350960720829	1.8711585871572933	-0.5797545034055426	-0.2539490229027211	1.8682178356830574	-0.5179025876770479	-0.2338402897822957	1.7125702229993367	-0.4997628861089818	-0.23187254840821017	1.558601437807909	-0.48613891455090763	-0.612447530621155	1.4965097305654886	-0.8837148153502998				-0.22202832260805833	1.5416776624963948	-0.49071295569657464	-0.2234649497696328	1.8750504134638508	-0.6488288221058537	-0.21254508225934757	1.7149669601352568	-0.6143868711228784	-0.21061694226389	1.5628340219653216	-0.5781054262263459	-0.2491886417838275	1.5172098174841946	-0.6156847073795764	-0.23357345034823038	1.526501088095059	-0.6271253022158778	-0.20621367695626697	1.5486257462632156	-0.5727251891576266	-0.22110081556307615	2.053525372913651	-0.5885370114446313	-0.2613444157885033	2.124818993302466	-0.6113592759052878	-0.24047071527655145	2.050474723880957	-0.5015597307061497	-0.24902474895427934	1.94902070264094	-0.46889952511399546	-0.26489993700549647	1.8617874903986789	-0.4484491035350446	-0.19935051256669886	2.057585162579514	-0.6759144191668117	-0.20043301696075932	1.9937946552218233	-0.7154326060038397	-1.2503576852129623	1.828865671896099	0.3582299124466968
